<?xml version="1.0" encoding="utf-8"?>
<!-- Generator: Adobe Illustrator 13.0.0, SVG Export Plug-In . SVG Version: 6.00 Build 14948)  -->
<!DOCTYPE svg PUBLIC "-//W3C//DTD SVG 1.0//EN" "http://www.w3.org/TR/2001/REC-SVG-20010904/DTD/svg10.dtd">
<svg version="1.0" id="Layer_2" xmlns="http://www.w3.org/2000/svg" xmlns:xlink="http://www.w3.org/1999/xlink" x="0px" y="0px"
	 width="347.357px" height="420.268px" viewBox="0 0 347.357 420.268" enable-background="new 0 0 347.357 420.268"
	 xml:space="preserve">
<path fill="#0679AF" d="M31.446,231.142c0,0,0,39.469,0,54.469s40.66,131.157,142.58,131.157c0.418,0,0.824-0.012,1.235-0.018
	c0.411,0.006,0.817,0.018,1.235,0.018c101.92,0,142.58-116.157,142.58-131.157s0-54.469,0-54.469H31.446z"/>
<path fill="#8EC5DC" d="M320.886,41.023h-78.089l-11.156-17.24L239.234,3.5l-65.811-0.051L107.613,3.5l7.594,20.283l-11.156,17.24
	H25.961L7.612,72.607c0,0,10.376,10.272,16.048,20.767s7.941,18.719,7.941,18.719v120.54h283.645v-120.54
	c0,0,2.269-8.225,7.941-18.719c5.672-10.494,16.048-20.767,16.048-20.767L320.886,41.023z"/>
<polygon fill="#B9A254" stroke="#FFFFFF" stroke-width="4" points="144.135,136.612 146.725,142.368 146.725,274.474 
	174.267,280.211 174.267,280.229 174.311,280.221 174.354,280.229 174.354,280.211 201.896,274.474 201.896,142.368 
	204.487,136.612 "/>
<path fill="#B9A254" stroke="#FFFFFF" stroke-width="4" d="M240.13,3.5H107.613l7.594,20.283l-5.594,11.494
	c0,0,3.667,13.667,10.333,16.333s15.333,1,15.333,1l10.782,14.917c0,0,0,59.72,0,62.568s0.552,2.848,2.218,2.848h22.116
	c2.934,0,4.952,0,4.952,0h24.116c1.666,0,2.219,0,2.219-2.848s0-62.568,0-62.568l10.781-14.917c0,0,8.667,1.667,15.334-1
	c6.666-2.667,10.332-16.333,10.332-16.333l-5.593-11.494L240.13,3.5z"/>
<path fill="none" stroke="#000000" stroke-width="7" d="M173.331,416.768c98.88,0,143.502-103.443,143.502-132.347
	s0-165.815,0-177.985s25.86-33.974,25.86-33.974l-21.297-31.438h-78.09l-11.155-17.24L241.785,3.5h-69.439h0.667h-67.44
	l9.634,20.283l-11.156,17.24H25.961L4.665,72.462c0,0,25.86,21.804,25.86,33.974s0,149.082,0,177.985
	s44.622,132.347,143.501,132.347H173.331z"/>
<polygon fill="#DA2603" stroke="#FFFFFF" stroke-width="3" points="95.671,61.769 104.583,72.052 121.31,72.052 114.866,82.883 
	123.914,95.633 106.365,95.633 98.414,105.642 88.131,95.084 68.937,95.084 77.849,83.568 68.389,72.6 88.405,72.6 "/>
<polygon fill="#DA2603" stroke="#FFFFFF" stroke-width="3" points="95.671,139.269 104.583,149.552 121.31,149.552 114.866,160.383 
	123.914,173.133 106.365,173.133 98.414,183.142 88.131,172.584 68.937,172.584 77.849,161.068 68.389,150.1 88.405,150.1 "/>
<polygon fill="#DA2603" stroke="#FFFFFF" stroke-width="3" points="249.171,61.769 258.083,72.052 274.81,72.052 268.366,82.883 
	277.414,95.633 259.865,95.633 251.913,105.642 241.631,95.084 222.437,95.084 231.349,83.568 221.889,72.6 241.905,72.6 "/>
<polygon fill="#DA2603" stroke="#FFFFFF" stroke-width="3" points="249.171,139.269 258.083,149.552 274.81,149.552 
	268.366,160.383 277.414,173.133 259.865,173.133 251.913,183.142 241.631,172.584 222.437,172.584 231.349,161.068 221.889,150.1 
	241.905,150.1 "/>
<polygon fill="#1F2C3A" stroke="#000000" stroke-width="3" points="223.544,19.691 124.894,19.691 121.293,13.93 226.064,13.93 "/>
<g>
	<path d="M152.915,25.817h-10.882c0,0,2.882,3.964,3.315,5.261s2.883,10.666,5.477,15.35s5.167,5.684,5.667,7.017s0.5,3,0.5,3
		s1.5-0.833,3.5-0.333s3,1.5,3,1.5s-0.833-1.833,0-3.667s2-3.5,2-3.5s-8.833,1.666-13.667-7.667s-1.5-12.833-0.5-13.667
		s2.167-2.167,2.167-2.167L152.915,25.817z"/>
	<path d="M194.443,25.817h10.882c0,0-2.883,3.964-3.314,5.261c-0.434,1.297-2.883,10.666-5.478,15.35s-5.167,5.684-5.667,7.017
		s-0.5,3-0.5,3s-1.5-0.833-3.5-0.333s-3,1.5-3,1.5s0.834-1.833,0-3.667s-2-3.5-2-3.5s8.833,1.666,13.666-7.667
		c4.834-9.333,1.5-12.833,0.5-13.667s-2.166-2.167-2.166-2.167L194.443,25.817z"/>
</g>
<path d="M184.9,25.11c-3.207,0-11.016,3.645-11.221,3.741c-0.206-0.096-8.015-3.741-11.222-3.741c-3.25,0-8.75,3.625-8.75,10.25
	s4.125,9.5,9.125,9.5s7.125-3.875,7.125-6.125s-1.125-5.375-5-5.375c-1.75,0-2.5,0-2.5,0s1.875,3,1.875,4.625
	s-0.375,2.875-1.75,2.875s-4.125-1.25-4.125-4.75s1-6.125,4.625-6.125c6.986,0,10.201,5.927,10.578,6.673v0.077
	c0,0,0.013-0.025,0.02-0.039c0.006,0.013,0.019,0.039,0.019,0.039v-0.077c0.377-0.746,3.591-6.673,10.577-6.673
	c3.625,0,4.625,2.625,4.625,6.125s-2.75,4.75-4.125,4.75s-1.75-1.25-1.75-2.875s1.875-4.625,1.875-4.625s-0.75,0-2.5,0
	c-3.875,0-5,3.125-5,5.375s2.125,6.125,7.125,6.125s9.125-2.875,9.125-9.5S188.15,25.11,184.9,25.11z"/>
<path d="M217.712,24.811c-8.688,0-11.327,8.346-12.775,11.667c-1.447,3.321-3.406,13.371-6.473,17.714
	c-3.065,4.343-5.365,5.28-5.365,5.28l0.579,0.346c-0.234-0.066-0.46-0.126-0.666-0.174c-2.057-0.48-4.936,1.371-4.936,2.331
	s0.137,4.73,0.137,4.73s-2.879-0.069-5.141-0.069c-2.263,0-4.524,3.565-4.524,5.073s0,4.936,0,4.936l-2.907-0.201v1.833
	c0,0,4.834-1.167,5.667-2.5s3.833-3.833,5.5-3.833s2.833,0.5,2.833,2s0.834,2.5,2.334,2.5s2.166-0.833,2.166-2.667
	s-0.666-2.333-1.5-2.333c-0.832,0-1.666-0.167-1.666-0.167s-0.667-2.333-0.667-3s0.333-2.5,2.833-2.5s4.5,1.5,4.5,7.833
	s-5.5,6.667-7.666,6.667c-2.168,0-2.5,2.667-3.834,2.667c-1.332,0-2.333-2.667-4.166-2.667c-0.961,0-1.902,0.93-2.552,1.534
	c-0.458,0.426-0.892,0.878-1.312,1.341c-0.334,0.369-0.659,0.896-1.068,1.161c-0.479,0.309-0.78,0.712-1.12,1.159
	c-0.141-0.814-0.295-1.612-0.295-2.458h-0.03V68.11c0,0,3.548-2.833,5.502-4.167c1.951-1.333,1.774-4.333,1.952-5
	s1.064-1.667,1.064-1.667s-0.71,0.333-4.259,0c-3.55-0.333-2.13-2.667-1.952-4.833c0.17-2.076-3.234-8.265-3.522-8.783V43.61
	c0,0-0.01,0.02-0.013,0.025c-0.005-0.006-0.015-0.025-0.015-0.025v0.051c-0.288,0.518-3.691,6.707-3.521,8.783
	c0.177,2.167,1.597,4.5-1.952,4.833c-3.55,0.333-4.26,0-4.26,0s0.888,1,1.065,1.667c0.177,0.667,0,3.667,1.952,5
	c1.951,1.333,5.502,4.167,5.502,4.167v14.903h-0.03c0,0.846-0.154,1.645-0.296,2.458c-0.34-0.446-0.642-0.85-1.119-1.159
	c-0.41-0.265-0.735-0.792-1.069-1.161c-0.42-0.463-0.854-0.915-1.312-1.341c-0.648-0.604-1.591-1.534-2.551-1.534
	c-1.834,0-2.834,2.667-4.167,2.667s-1.666-2.667-3.833-2.667s-7.667-0.334-7.667-6.667s2-7.833,4.5-7.833s2.833,1.833,2.833,2.5
	s-0.666,3-0.666,3s-0.834,0.167-1.667,0.167s-1.5,0.5-1.5,2.333s0.667,2.667,2.167,2.667s2.333-1,2.333-2.5s1.167-2,2.833-2
	c1.667,0,4.667,2.5,5.5,3.833c0.834,1.333,5.668,2.5,5.668,2.5v-1.833l-2.908,0.201c0,0,0-3.428,0-4.936s-2.262-5.073-4.523-5.073
	c-2.263,0-5.142,0.069-5.142,0.069s0.137-3.77,0.137-4.73s-2.879-2.811-4.936-2.331c-0.205,0.048-0.432,0.108-0.666,0.174
	l0.579-0.346c0,0-2.299-0.937-5.365-5.28c-3.065-4.343-5.024-14.393-6.473-17.714c-1.447-3.321-4.088-11.667-12.774-11.667
	c-8.688,0-12.179,5.28-12.179,9.112s2.726,12.775,9.027,12.775c6.303,0,9.198-3.236,9.198-6.728s-3.662-6.473-5.536-6.473
	c-1.873,0-1.362,0.426-1.362,0.426s0.255,2.726,1.192,2.726c0.937,0,1.959,1.277,1.959,2.811s-0.767,2.725-3.407,2.725
	c-2.64,0-4.514-3.407-4.514-6.217s1.533-6.387,5.28-6.387c3.748,0,6.643,3.066,8.857,6.983c2.214,3.917,1.703,9.794,3.406,15.841
	c1.479,5.247,5.965,9.078,7.127,10.001c-0.112,0.176-0.177,0.353-0.177,0.529c0,1.371,0.959,2.811-0.48,2.879
	s-3.427,0.753-3.358,1.713s2.203,3.25,2.203,4.25s-1.834,2.5-1.834,4s3.5,6.167,3.5,6.167l0.116,0.116
	c-1.356,1.868-4.076,3.946-3.507,6.056c0.438,1.625,1.799,1.759,1.577,3.752c-0.16,1.437-1.906,2.536-1.249,3.839
	c0.796,1.578,2.407,1.042,2.186,3.347c-0.197,2.058-1.78,1.647-2.347,3.283c-0.342,0.989,1.198,2.916,2.058,3.253
	c0.018,0.007,0.039,0.009,0.058,0.015c0.067,0.388,0.143,0.813-0.016,1.144c-0.354,0.741-0.605,0.297-1.179,0.708
	c-1.003,0.719-0.962,2.042-0.407,2.86c0.635,0.938,1.563,1.164,1.151,2.421c-0.303,0.925-1.291,1.197-0.949,2.414
	c0.156,0.554,0.555,1.017,1.082,1.422c0.132,1.177-0.057,2.231-1.269,2.78c-0.298,0.135-0.632,0.179-0.944,0.242
	c-0.24,0.049-0.846-0.002-1.063,0.116c-0.5,0.274-0.492,1.407-0.403,1.894c0.163,0.9,0.794,0.886,1.502,1.089
	c0.54,0.155,1.767,0.51,2.031,1.039c0.202,0.403-0.091,1.176-0.338,1.485c-0.38,0.477-1.046,0.585-1.467,1.042
	c-0.906,0.985-0.757,2.635-0.397,3.833c0.364,1.21,3.075,1.644,4.149,1.748c2,0.194,4.134-0.003,6.146-0.003h6.317
	c2.323,0,4.592,0.116,6.91,0.116c1.527,0,3.168,0.137,4.688-0.004c1.521,0.141,3.161,0.004,4.688,0.004
	c2.318,0,4.587-0.116,6.91-0.116h6.316c2.013,0,4.147,0.197,6.146,0.003c1.074-0.104,3.785-0.538,4.149-1.748
	c0.36-1.198,0.509-2.848-0.396-3.833c-0.421-0.457-1.087-0.565-1.467-1.042c-0.247-0.31-0.54-1.082-0.338-1.485
	c0.265-0.529,1.491-0.884,2.031-1.039c0.708-0.203,1.34-0.189,1.502-1.089c0.089-0.487,0.098-1.62-0.403-1.894
	c-0.217-0.119-0.822-0.067-1.063-0.116c-0.312-0.063-0.646-0.107-0.943-0.242c-1.212-0.549-1.401-1.603-1.27-2.78
	c0.526-0.406,0.927-0.868,1.082-1.422c0.342-1.217-0.646-1.489-0.948-2.414c-0.413-1.257,0.516-1.483,1.15-2.421
	c0.555-0.818,0.596-2.142-0.407-2.86c-0.573-0.411-0.825,0.032-1.179-0.708c-0.158-0.331-0.083-0.755-0.016-1.143
	c0.019-0.007,0.04-0.008,0.059-0.016c0.859-0.337,2.399-2.264,2.057-3.253c-0.566-1.636-2.148-1.225-2.346-3.283
	c-0.223-2.305,1.389-1.769,2.185-3.347c0.658-1.304-1.088-2.403-1.248-3.839c-0.222-1.993,1.138-2.127,1.576-3.752
	c0.569-2.11-2.15-4.188-3.506-6.056l0.115-0.115c0,0,3.5-4.667,3.5-6.167s-1.833-3-1.833-4s2.134-3.29,2.202-4.25
	s-1.919-1.645-3.358-1.713s-0.48-1.508-0.48-2.879c0-0.176-0.063-0.353-0.177-0.529c1.162-0.923,5.649-4.754,7.127-10.002
	c1.703-6.046,1.193-11.923,3.407-15.841s5.109-6.983,8.856-6.983c3.748,0,5.281,3.577,5.281,6.387s-1.874,6.217-4.514,6.217
	c-2.641,0-3.407-1.192-3.407-2.725s1.022-2.811,1.959-2.811s1.192-2.726,1.192-2.726s0.511-0.426-1.363-0.426
	c-1.873,0-5.535,2.981-5.535,6.473s2.896,6.728,9.197,6.728c6.303,0,9.027-8.943,9.027-12.775S226.399,24.811,217.712,24.811z
	 M179.517,59.171c0,0-0.08,0.191-0.365,0.611s-0.122,2.292-0.609,3.209c-0.489,0.917-2.767,1.604-2.767,1.604l-0.011-5.424H179.517z
	 M172.964,64.595c0,0-2.278-0.688-2.767-1.604s-0.326-2.789-0.61-3.209s-0.366-0.611-0.366-0.611h3.754L172.964,64.595z
	 M174.846,109.662c0.129-0.68,0.422-1.128,0.421-1.877c-0.001-0.596-0.059-1.223,0-1.815c0.04-0.404,0.053-0.839,0.063-1.28
	c0.1,0.053,0.201,0.101,0.3,0.144c1.011,0.436,2.941-0.061,4.062,0c0.288,0.016,0.569,0.047,0.852,0.077
	c-0.496,0.224-0.967,0.686-1.243,1.062c-0.361,0.489-0.535,0.994-0.609,1.595c-0.154,1.247-0.292,2.478,0.572,3.522
	c0.693,0.838,1.652,1.335,2.514,1.946c0.814,0.578,1.59,1.585,2.035,2.483c0.35,0.703,0.302,2.1-0.383,2.427
	c-0.505,0.242-1.018,0.164-1.561,0.186c-0.003,0.072,0.011,0.129,0.016,0.194c-0.487-0.16-0.966-0.336-1.405-0.52
	c-0.977-0.409-1.791-1.104-2.645-1.713c-0.418-0.298-0.852-0.582-1.319-0.795c-0.396-0.18-0.685-0.24-0.95-0.619
	c-0.097-0.138-0.202-0.302-0.231-0.472c-0.076,0.067-0.138,0.141-0.194,0.217c0.019-0.5-0.024-1.003-0.053-1.288
	C174.979,112.065,174.639,110.745,174.846,109.662z M181.804,105.06c0.867,0.116,1.734,0.231,2.649,0.241
	c3.698,0.041,7.468-0.232,11.158-0.008c0.484,0.03,1.063,0.155,1.663,0.269c0.068,0.1,0.162,0.195,0.219,0.276
	c0.077,0.109,0.142,0.229,0.202,0.349c0.137,0.279,0.236,0.575,0.318,0.875c0.198,0.725,0.289,1.479,0.336,2.227
	c0.1,1.59,0.047,3.281-0.366,4.828c-0.582,2.181-3.235,2.837-5.187,3.477c-0.432,0.142-0.876,0.288-1.318,0.438
	c-0.08-0.06-0.183-0.02-0.282-0.007c-0.321,0.042-0.679,0.006-1-0.021c-0.625-0.053-1.325-0.205-1.727-0.731
	c-0.776-1.018-0.611-2.233,0.275-3.086c1.613-1.552,4.512-2.042,5.235-4.413c0.246-0.807,0.249-2.425-0.023-3.239
	c-0.501-1.497-1.781,0.743-2.04,1.326c-0.381,0.854-0.725,2.016-1.426,2.66c-0.6,0.55-2.641,1.298-3.041,0.248
	c-0.352-0.922,0.396-1.759,0.581-2.621c0.131-0.607,0.548-2.438-0.338-2.748c-0.95-0.333-2.097,2.111-2.379,2.757
	c-0.375,0.861-0.705,1.661-0.877,2.607c-0.119,0.655-0.135,0.949-0.771,0.562c-0.48-0.292-1.078-0.496-1.438-0.94
	c-0.7-0.865-0.719-2.195-0.548-3.272C181.782,106.479,182.115,105.53,181.804,105.06z M173.473,105.969
	c0.059,0.592,0.001,1.22,0,1.815c-0.001,0.749,0.291,1.198,0.42,1.877c0.207,1.083-0.133,2.404-0.24,3.474
	c-0.027,0.276-0.089,0.758-0.092,1.244c-0.048-0.06-0.095-0.12-0.155-0.173c-0.029,0.169-0.135,0.333-0.231,0.472
	c-0.266,0.379-0.555,0.439-0.95,0.619c-0.468,0.213-0.901,0.497-1.319,0.795c-0.854,0.608-1.668,1.304-2.645,1.713
	c-0.439,0.184-0.918,0.36-1.406,0.521c0.005-0.065,0.019-0.122,0.016-0.194c-0.544-0.022-1.056,0.056-1.561-0.186
	c-0.685-0.328-0.732-1.724-0.384-2.427c0.446-0.897,1.222-1.905,2.036-2.483c0.861-0.61,1.82-1.107,2.514-1.946
	c0.864-1.045,0.727-2.276,0.572-3.522c-0.074-0.602-0.248-1.106-0.609-1.595c-0.276-0.375-0.747-0.838-1.243-1.062
	c0.283-0.03,0.564-0.061,0.853-0.077c1.12-0.062,3.051,0.435,4.063,0c0.099-0.042,0.199-0.091,0.299-0.143
	C173.42,105.129,173.433,105.564,173.473,105.969z M160.707,108.146c0.186,0.861,0.933,1.699,0.581,2.621
	c-0.4,1.051-2.442,0.302-3.041-0.248c-0.702-0.645-1.046-1.806-1.426-2.66c-0.259-0.583-1.539-2.823-2.04-1.326
	c-0.272,0.814-0.27,2.433-0.023,3.239c0.723,2.371,3.622,2.861,5.235,4.413c0.887,0.853,1.052,2.068,0.275,3.086
	c-0.401,0.527-1.102,0.679-1.727,0.731c-0.321,0.027-0.679,0.063-1.001,0.021c-0.099-0.013-0.201-0.053-0.281,0.007
	c-0.442-0.15-0.887-0.296-1.318-0.438c-1.951-0.64-4.604-1.296-5.187-3.477c-0.413-1.547-0.465-3.238-0.366-4.828
	c0.047-0.749,0.137-1.502,0.335-2.227c0.082-0.299,0.182-0.596,0.319-0.875c0.06-0.12,0.125-0.24,0.202-0.349
	c0.057-0.081,0.151-0.176,0.218-0.276c0.6-0.114,1.179-0.239,1.664-0.269c3.691-0.224,7.461,0.049,11.159,0.008
	c0.915-0.01,1.781-0.125,2.647-0.241c-0.311,0.471,0.022,1.419,0.123,2.051c0.172,1.078,0.152,2.408-0.547,3.272
	c-0.36,0.445-0.959,0.648-1.438,0.94c-0.636,0.387-0.651,0.093-0.771-0.562c-0.172-0.946-0.502-1.746-0.877-2.607
	c-0.282-0.646-1.429-3.09-2.379-2.757C160.158,105.708,160.576,107.539,160.707,108.146z M153.268,97.019
	c-1.137-0.967-3.015-0.54-2.308-2.652c0.537-1.605,1.874-1.377,0.909-3.437c-0.59-1.261-2.035-2.435-1.572-4.061
	c0.204-0.719,1.435-1.524,2.325-2.235l0.476,0.476c0.042,0.042,0.345,0,0.401,0h17.433c0.477,0,0.802,0.13,1.194,0.429
	c0.218,0.165,0.406,0.367,0.592,0.571c-0.033,0.224-0.067,0.446-0.088,0.676c-0.137,1.509-0.125,3.23,0.441,4.588
	c0.481,1.159,0.444,3.295-0.475,4.263c-0.974,1.025-1.479,2.128-0.799,3.459c0.513,1,1.092,2.021,1.375,3.093
	c0.057,0.213,0.086,0.444,0.117,0.673c-0.512-0.135-1.165,0.168-1.742,0.255c-1.685,0.253-3.442,0.152-5.163,0.152
	c-1.063,0-2.126-0.037-3.188-0.078c-0.195-0.559-0.592-1.962-0.045-2.948c0.696-1.253,5.707-5.986,6.125-6.821
	s-0.278-3.62-1.392-3.063c-1.114,0.557-4.315,4.733-4.315,4.733s0-4.594,0-6.125s-3.202-2.087-3.202,0.279s-0.278,5.568-0.278,5.568
	s-3.202-4.037-3.898-4.873s-3.897,0.418-2.506,2.088c1.393,1.67,5.848,5.568,5.986,7.239c0.107,1.284-0.032,3.058-0.103,3.812
	c-0.76-0.008-1.519-0.001-2.274,0.032c-1.38,0.062-7.253,2.049-7.146-0.468C150.233,100.649,156.467,99.742,153.268,97.019z
	 M198.313,128.001c-0.626,0.832-1.319,0.685-2.237,0.761c-0.868,0.072-1.752,0.303-2.66,0.232c-0.729-0.058-1.032-0.604-1.674-0.93
	c-0.607-0.308-1.211-0.861-1.844-1.044c-0.703-0.203-1.646-0.367-2.366-0.35c-0.79,0.019-2.05,0.347-2.548,1.045
	c-0.406,0.569-0.33,0.893-1.106,1.104c-1.377,0.375-3.798,0.784-5.058-0.018c-1.238-0.787-2.847-2.417-4.435-2.246v0
	c-0.005,0-0.011,0.001-0.016,0c-0.005,0.001-0.011,0-0.016,0v0c-1.587-0.171-3.196,1.459-4.434,2.246
	c-1.261,0.801-3.681,0.393-5.058,0.018c-0.777-0.211-0.7-0.535-1.106-1.104c-0.498-0.699-1.758-1.026-2.548-1.045
	c-0.719-0.017-1.663,0.147-2.366,0.35c-0.633,0.183-1.236,0.736-1.844,1.044c-0.642,0.326-0.945,0.872-1.674,0.93
	c-0.907,0.071-1.792-0.16-2.659-0.232c-0.918-0.076-1.612,0.07-2.238-0.761c-0.325-0.432-0.361-0.91-0.313-1.446
	c0.048-0.542,0.145-1.156,0.357-1.624c0.197-0.434,0.48-0.772,0.615-1.184c0.24,0.45,0.664,0.981,0.951,1.251
	c0.667,0.625,1.208,0.785,2.1,0.829c2.164,0.105,4.384,0.042,6.55,0c2.648-0.051,5.013-0.993,7.682-0.993
	c1.021,0,2.063-0.054,3.083,0c0.946,0.05,1.807,0.385,2.703,0.59c0.01,0.028,0.01,0.064,0.021,0.091
	c0.066-0.011,0.13-0.03,0.196-0.043c0.065,0.013,0.129,0.032,0.195,0.043c0.01-0.027,0.011-0.063,0.02-0.091
	c0.897-0.206,1.758-0.541,2.703-0.59c1.02-0.054,2.063,0,3.083,0c2.669,0,5.034,0.942,7.682,0.993c2.167,0.042,4.386,0.105,6.55,0
	c0.893-0.043,1.433-0.203,2.1-0.829c0.288-0.27,0.711-0.801,0.951-1.251c0.135,0.412,0.418,0.75,0.615,1.184
	c0.213,0.468,0.309,1.082,0.357,1.624C198.673,127.092,198.638,127.569,198.313,128.001z M197.952,118.2
	c0.087,0.358,0.313,0.676,0.516,0.977c0.325,0.481,0.76,0.977,0.855,1.569c0.094,0.587-0.244,1.056-0.682,1.408
	c-0.336,0.271-0.667,0.318-0.87,0.533c-0.156-0.211-0.326-0.076-0.5,0.05c-0.189,0.138-0.399,0.254-0.605,0.365
	c-0.465,0.252-0.956,0.452-1.464,0.597c-1.023,0.292-2.092,0.36-3.151,0.371c-0.114,0.001-0.229,0.001-0.343,0.001
	c-2.281,0-4.61-0.302-6.865-0.552c-0.943-0.104-2.008,0.049-2.899-0.208c-1.083-0.313-2.072-0.798-3.148-1.134
	c-0.88-0.274-1.724-0.539-2.655-0.625c-0.309-0.029-1.347-0.251-1.77-0.108c-0.424-0.143-1.462,0.08-1.771,0.108
	c-0.932,0.087-1.776,0.351-2.656,0.625c-1.076,0.336-2.065,0.821-3.148,1.134c-0.891,0.257-1.956,0.104-2.9,0.208
	c-2.254,0.25-4.584,0.552-6.865,0.552c-0.114,0-0.229,0-0.343-0.001c-1.059-0.011-2.128-0.079-3.151-0.371
	c-0.508-0.145-1-0.345-1.464-0.597c-0.206-0.111-0.416-0.228-0.605-0.365c-0.174-0.126-0.344-0.262-0.5-0.05
	c-0.204-0.215-0.535-0.261-0.871-0.533c-0.438-0.353-0.774-0.821-0.681-1.408c0.095-0.592,0.53-1.088,0.855-1.569
	c0.203-0.3,0.429-0.619,0.515-0.977c0.036-0.148,0.015-0.265-0.024-0.372c1.056,0.476,2.117,0.899,2.789,1.383
	c2.064,1.486,4.239,2.829,6.703,3.632c1.692,0.552,2.966,0.222,4.438-0.645c1.434-0.846,3.091-0.64,4.464-1.644
	c0.995-0.727,2.089-1.309,3.033-2.107c0.595-0.503,1.14-1.098,1.449-1.822c0.122-0.287,0.218-0.61,0.254-0.936
	c0.113,0.122,0.253,0.211,0.452,0.211c0.225,0,0.382-0.114,0.501-0.284c0.029,0.35,0.126,0.7,0.258,1.008
	c0.309,0.725,0.854,1.319,1.449,1.822c0.943,0.798,2.038,1.38,3.033,2.107c1.373,1.004,3.029,0.798,4.463,1.644
	c1.473,0.867,2.746,1.197,4.438,0.645c2.464-0.803,4.639-2.146,6.703-3.632c0.672-0.483,1.732-0.907,2.788-1.383
	C197.938,117.935,197.917,118.052,197.952,118.2z M198.591,102.646c0.107,2.518-5.766,0.53-7.146,0.468
	c-0.756-0.034-1.515-0.041-2.274-0.032c-0.07-0.754-0.21-2.527-0.104-3.812c0.14-1.671,4.595-5.568,5.986-7.239
	c1.393-1.67-1.809-2.924-2.506-2.088c-0.695,0.835-3.897,4.873-3.897,4.873s-0.278-3.202-0.278-5.568s-3.202-1.81-3.202-0.279
	s0,6.125,0,6.125s-3.202-4.176-4.315-4.733s-1.811,2.228-1.393,3.063s5.43,5.568,6.125,6.821c0.548,0.986,0.151,2.389-0.044,2.948
	c-1.063,0.041-2.127,0.078-3.189,0.078c-1.72,0-3.479,0.101-5.162-0.152c-0.577-0.087-1.231-0.39-1.742-0.255
	c0.031-0.229,0.061-0.46,0.117-0.673c0.282-1.072,0.861-2.094,1.374-3.093c0.681-1.331,0.175-2.435-0.799-3.459
	c-0.918-0.967-0.955-3.104-0.473-4.263c0.564-1.358,0.576-3.079,0.439-4.588c-0.021-0.23-0.056-0.452-0.088-0.676
	c0.186-0.204,0.374-0.406,0.592-0.571c0.393-0.298,0.718-0.429,1.194-0.429h17.434c0.056,0,0.358,0.042,0.4,0l0.476-0.476
	c0.892,0.711,2.122,1.516,2.326,2.235c0.462,1.626-0.982,2.8-1.573,4.061c-0.964,2.06,0.373,1.832,0.91,3.437
	c0.707,2.112-1.172,1.685-2.308,2.652C192.271,99.742,198.506,100.649,198.591,102.646z"/>
<line fill="none" stroke="#000000" stroke-width="4" x1="147.589" y1="137.476" x2="200.546" y2="137.476"/>
<g>
	<line fill="none" stroke="#000000" stroke-width="2" x1="149.315" y1="137.763" x2="149.315" y2="275.049"/>
	<line fill="none" stroke="#000000" stroke-width="2" x1="155.66" y1="137.763" x2="155.66" y2="275.049"/>
	<line fill="none" stroke="#000000" stroke-width="2" x1="162.004" y1="137.763" x2="162.004" y2="275.049"/>
	<line fill="none" stroke="#000000" stroke-width="2" x1="168.348" y1="137.763" x2="168.348" y2="275.049"/>
	<line fill="none" stroke="#000000" stroke-width="2" x1="174.692" y1="137.763" x2="174.692" y2="275.049"/>
	<line fill="none" stroke="#000000" stroke-width="2" x1="181.036" y1="137.763" x2="181.036" y2="275.049"/>
	<line fill="none" stroke="#000000" stroke-width="2" x1="187.38" y1="137.763" x2="187.38" y2="275.049"/>
	<line fill="none" stroke="#000000" stroke-width="2" x1="193.725" y1="137.763" x2="193.725" y2="275.049"/>
	<line fill="none" stroke="#000000" stroke-width="2" x1="200.068" y1="137.763" x2="200.068" y2="275.049"/>
</g>
<polygon fill="#DA2603" stroke="#FFFFFF" stroke-width="3" points="173.343,191.269 179.579,200.614 191.285,200.614 
	186.775,210.458 193.107,222.046 180.826,222.046 175.262,231.142 168.066,221.546 154.634,221.546 160.87,211.081 154.25,201.113 
	168.258,201.113 "/>
<path fill="#FFFFFF" d="M245.376,342.277c-7,0-16.334-4.333-23.334-7.333c-6.99-2.996-26.277-9.315-48.238-9.333v-0.001
	c-0.016,0-0.031,0-0.047,0s-0.031,0-0.047,0v0.001c-21.961,0.018-41.25,6.337-48.24,9.333c-7,3-16.333,7.333-23.333,7.333
	s-18-4.333-18-4.333s4.667,8.666,20,8.666s26.667-7.333,36-10.333c9.326-2.998,19.969-5.662,33.621-5.667
	c13.65,0.005,24.293,2.669,33.619,5.667c9.334,3,20.666,10.333,36,10.333s20-8.666,20-8.666S252.376,342.277,245.376,342.277z"/>
<path fill="#FFFFFF" d="M239.259,353.61c-6.5,0-18.5-6.75-22.5-8.75s-19.25-8-41.75-8c-0.011,0-0.021,0-0.031,0s-0.021,0-0.031,0
	c-22.5,0-37.75,6-41.75,8s-16,8.75-22.5,8.75s-13.75-0.5-13.75-0.5s2,5.25,13,5.25s16.5-3.25,25.25-8.25s21.25-6,39.75-6
	c0.011,0,0.021,0,0.031,0s0.021,0,0.031,0c18.5,0,31,1,39.75,6s14.25,8.25,25.25,8.25s13-5.25,13-5.25
	S245.759,353.61,239.259,353.61z"/>
<path fill="#FFFFFF" d="M235.341,362.61c-6,0-10.25-0.5-18.25-4.75c-7.985-4.242-22.448-8.731-42.143-8.748
	c0-0.001-0.002-0.002-0.002-0.002c-0.018,0-0.035,0.001-0.053,0.001s-0.035-0.001-0.053-0.001c0,0-0.002,0.001-0.002,0.002
	c-19.694,0.017-34.157,4.506-42.143,8.748c-8,4.25-12.25,4.75-18.25,4.75s-11.25-1-11.25-1s8.25,5.5,13.25,5.5s9,0.5,21.5-4.25
	c12.478-4.742,27.197-7.738,36.947-7.749c9.75,0.011,24.469,3.007,36.947,7.749c12.5,4.75,16.5,4.25,21.5,4.25s13.25-5.5,13.25-5.5
	S241.341,362.61,235.341,362.61z"/>
<path fill="#888A88" stroke="#000000" stroke-width="3" d="M219.217,309.61c-0.538-3.651-1.521-7.156-2.894-10.461l9.846-5.685
	l-6.125-10.608l-9.95,5.745c-2.259-2.84-4.855-5.396-7.734-7.606l5.691-9.857l-10.608-6.125l-5.74,9.943
	c-3.324-1.314-6.844-2.236-10.506-2.712V260.86h-12.25l0,11.479c-3.651,0.538-7.157,1.521-10.46,2.894l-5.685-9.846l-10.609,6.125
	l5.745,9.95c-2.84,2.259-5.396,4.855-7.606,7.734l-9.857-5.691l-6.125,10.608l9.943,5.74c-1.314,3.324-2.236,6.844-2.711,10.506
	h-11.384v12.25h11.479c0.021,0.143,0.05,0.282,0.072,0.424c8.979-1.75,18.826-3.379,28.218-4.347
	c-0.139-0.84-0.229-1.697-0.229-2.577c0-8.677,7.034-15.71,15.71-15.71c8.677,0,15.71,7.033,15.71,15.71
	c0,0.83-0.083,1.639-0.208,2.435c14.045,1.46,23.377,4.659,27.818,6.508c0.216-1.052,0.406-2.114,0.546-3.192h11.384v-12.25H219.217
	z"/>
<path fill="#BAD3DF" stroke="#FFFFFF" stroke-width="3" d="M254.507,248.61c-16.25,0-28.5,10-28.5,10l18,24c0,0,8.75-5.5,18.75-5.5
	s17,8.75,17,19s-6.197,16.405-9.686,20.032c-4.396,4.568-13.564,8.968-28.814,8.968c-15.092,0-35.33-10.765-67-10.989v-0.011
	c-0.17,0-0.332,0.005-0.5,0.005s-0.332-0.005-0.5-0.005v0.011c-31.671,0.225-51.91,10.989-67,10.989
	c-15.25,0-24.419-4.399-28.814-8.968c-3.49-3.627-9.686-9.782-9.686-20.032s7-19,17-19s18.75,5.5,18.75,5.5l18-24
	c0,0-12.25-10-28.5-10s-40.75,13.25-40.75,43.75s23.75,44,43.5,44c19.662,0,40.568-15.108,78-15.244
	c37.432,0.136,58.338,15.244,78,15.244c19.75,0,43.5-13.5,43.5-44S270.757,248.61,254.507,248.61z"/>
<path fill="#FFFFFF" d="M226.581,373.491c-3.092,0-10.65-2.634-15.918-4.122s-24.162-6.871-35.729-6.871s-30.461,5.383-35.729,6.871
	s-12.826,4.122-15.917,4.122s-7.1-0.458-7.1-0.458s5.382,3.55,10.077,3.55s13.283-3.206,21.872-5.84s21.759-4.466,26.797-4.466
	s18.208,1.832,26.797,4.466s17.177,5.84,21.872,5.84s10.077-3.55,10.077-3.55S229.673,373.491,226.581,373.491z"/>
<path fill="#FFFFFF" d="M215.964,384.013c-3.162,0-6.323-0.873-9.812-2.617c-3.472-1.735-15.798-6.705-30.957-6.754
	c0-0.001-0.003-0.005-0.003-0.005c-0.037,0-0.072,0.002-0.109,0.002s-0.072-0.002-0.109-0.002c0,0-0.003,0.004-0.003,0.005
	c-15.16,0.049-27.486,5.019-30.957,6.754c-3.488,1.744-6.65,2.617-9.812,2.617s-9.157-1.526-9.157-1.526s4.034,5.015,8.721,5.015
	s8.722-1.091,14.172-3.053s22.783-3.815,27.145-3.815s21.693,1.854,27.145,3.815c5.45,1.962,9.484,3.053,14.172,3.053
	s8.722-5.015,8.722-5.015S219.125,384.013,215.964,384.013z"/>
<path fill="#8EC5DC" d="M176.945,3.274"/>
</svg>
